<mxfile host="Electron" modified="2024-07-24T12:08:07.856Z" agent="Mozilla/5.0 (Windows NT 10.0; Win64; x64) AppleWebKit/537.36 (KHTML, like Gecko) draw.io/24.5.3 Chrome/124.0.6367.207 Electron/30.0.6 Safari/537.36" etag="E6U8E65frpsEBAu3hF07" version="24.5.3" type="device">
  <diagram name="Page-1" id="cuuSLGr5dzuxchV_SjQ0">
    <mxGraphModel dx="1215" dy="990" grid="1" gridSize="10" guides="1" tooltips="1" connect="1" arrows="1" fold="1" page="1" pageScale="1" pageWidth="1169" pageHeight="827" math="0" shadow="0">
      <root>
        <mxCell id="0" />
        <mxCell id="1" parent="0" />
        <mxCell id="y1FDP_l7_92bPk08sn10-1" value="&lt;h1 style=&quot;margin-top: 0px;&quot;&gt;Problem statement&lt;/h1&gt;&lt;p&gt;Design an authentication and authorization system (e.g. AWS IAM). The system allows resource admins to configure a set of policies (rules) that define who (e.g. user A or web service X) can do what (e.g. read) with a specified resource (e.g. S3 bucket objects). When a user (e.g. user A) makes a request to access a resource (e.g. read an S3 object), the system should check for policies that apply to the request and either apply or deny the request.&lt;/p&gt;" style="text;html=1;whiteSpace=wrap;overflow=hidden;rounded=0;" vertex="1" parent="1">
          <mxGeometry x="20" y="20" width="630" height="130" as="geometry" />
        </mxCell>
        <mxCell id="y1FDP_l7_92bPk08sn10-22" style="edgeStyle=orthogonalEdgeStyle;rounded=0;orthogonalLoop=1;jettySize=auto;html=1;entryX=0;entryY=0.5;entryDx=0;entryDy=0;exitX=1;exitY=0.5;exitDx=0;exitDy=0;exitPerimeter=0;" edge="1" parent="1" source="y1FDP_l7_92bPk08sn10-48" target="y1FDP_l7_92bPk08sn10-16">
          <mxGeometry relative="1" as="geometry">
            <mxPoint x="340" y="384" as="sourcePoint" />
          </mxGeometry>
        </mxCell>
        <mxCell id="y1FDP_l7_92bPk08sn10-11" value="Resource Admin" style="sketch=0;outlineConnect=0;fontColor=#232F3E;gradientColor=none;fillColor=#232F3D;strokeColor=none;dashed=0;verticalLabelPosition=bottom;verticalAlign=top;align=center;html=1;fontSize=12;fontStyle=0;aspect=fixed;pointerEvents=1;shape=mxgraph.aws4.user;" vertex="1" parent="1">
          <mxGeometry x="30" y="561" width="78" height="78" as="geometry" />
        </mxCell>
        <mxCell id="y1FDP_l7_92bPk08sn10-21" style="edgeStyle=orthogonalEdgeStyle;rounded=0;orthogonalLoop=1;jettySize=auto;html=1;entryX=0.5;entryY=0;entryDx=0;entryDy=0;entryPerimeter=0;" edge="1" parent="1" source="y1FDP_l7_92bPk08sn10-77" target="y1FDP_l7_92bPk08sn10-25">
          <mxGeometry relative="1" as="geometry">
            <mxPoint x="305.5000000000002" y="348" as="targetPoint" />
          </mxGeometry>
        </mxCell>
        <mxCell id="y1FDP_l7_92bPk08sn10-12" value="User" style="sketch=0;outlineConnect=0;fontColor=#232F3E;gradientColor=none;fillColor=#232F3D;strokeColor=none;dashed=0;verticalLabelPosition=bottom;verticalAlign=top;align=center;html=1;fontSize=12;fontStyle=0;aspect=fixed;pointerEvents=1;shape=mxgraph.aws4.user;" vertex="1" parent="1">
          <mxGeometry x="30" y="161" width="78" height="78" as="geometry" />
        </mxCell>
        <mxCell id="y1FDP_l7_92bPk08sn10-20" style="edgeStyle=orthogonalEdgeStyle;rounded=0;orthogonalLoop=1;jettySize=auto;html=1;" edge="1" parent="1" source="y1FDP_l7_92bPk08sn10-13" target="y1FDP_l7_92bPk08sn10-25">
          <mxGeometry relative="1" as="geometry">
            <mxPoint x="271" y="384" as="targetPoint" />
          </mxGeometry>
        </mxCell>
        <mxCell id="y1FDP_l7_92bPk08sn10-39" value="Access Protected&lt;br&gt;Resources" style="edgeLabel;html=1;align=center;verticalAlign=middle;resizable=0;points=[];" vertex="1" connectable="0" parent="y1FDP_l7_92bPk08sn10-20">
          <mxGeometry x="-0.1712" y="1" relative="1" as="geometry">
            <mxPoint x="5" y="21" as="offset" />
          </mxGeometry>
        </mxCell>
        <mxCell id="y1FDP_l7_92bPk08sn10-13" value="&lt;div&gt;Client&lt;/div&gt;Web Services" style="rounded=1;whiteSpace=wrap;html=1;" vertex="1" parent="1">
          <mxGeometry x="20" y="354" width="120" height="60" as="geometry" />
        </mxCell>
        <mxCell id="y1FDP_l7_92bPk08sn10-14" value="Policy Database" style="strokeWidth=2;html=1;shape=mxgraph.flowchart.database;whiteSpace=wrap;" vertex="1" parent="1">
          <mxGeometry x="1040" y="580" width="60" height="82" as="geometry" />
        </mxCell>
        <mxCell id="y1FDP_l7_92bPk08sn10-15" value="Pollicy Management Service" style="rounded=1;whiteSpace=wrap;html=1;" vertex="1" parent="1">
          <mxGeometry x="681" y="591" width="120" height="60" as="geometry" />
        </mxCell>
        <mxCell id="y1FDP_l7_92bPk08sn10-28" style="edgeStyle=orthogonalEdgeStyle;rounded=0;orthogonalLoop=1;jettySize=auto;html=1;exitX=1;exitY=0.5;exitDx=0;exitDy=0;" edge="1" parent="1" source="y1FDP_l7_92bPk08sn10-16" target="y1FDP_l7_92bPk08sn10-24">
          <mxGeometry relative="1" as="geometry" />
        </mxCell>
        <mxCell id="y1FDP_l7_92bPk08sn10-35" style="edgeStyle=orthogonalEdgeStyle;rounded=0;orthogonalLoop=1;jettySize=auto;html=1;" edge="1" parent="1" source="y1FDP_l7_92bPk08sn10-16" target="y1FDP_l7_92bPk08sn10-17">
          <mxGeometry relative="1" as="geometry" />
        </mxCell>
        <mxCell id="y1FDP_l7_92bPk08sn10-44" value="Authorize a Request" style="edgeLabel;html=1;align=center;verticalAlign=middle;resizable=0;points=[];" vertex="1" connectable="0" parent="y1FDP_l7_92bPk08sn10-35">
          <mxGeometry x="-0.0417" y="-3" relative="1" as="geometry">
            <mxPoint as="offset" />
          </mxGeometry>
        </mxCell>
        <mxCell id="y1FDP_l7_92bPk08sn10-16" value="Authentication Service" style="rounded=1;whiteSpace=wrap;html=1;" vertex="1" parent="1">
          <mxGeometry x="681" y="354" width="120" height="60" as="geometry" />
        </mxCell>
        <mxCell id="y1FDP_l7_92bPk08sn10-36" style="edgeStyle=orthogonalEdgeStyle;rounded=0;orthogonalLoop=1;jettySize=auto;html=1;" edge="1" parent="1" source="y1FDP_l7_92bPk08sn10-17" target="y1FDP_l7_92bPk08sn10-15">
          <mxGeometry relative="1" as="geometry" />
        </mxCell>
        <mxCell id="y1FDP_l7_92bPk08sn10-43" value="Read Policies" style="edgeLabel;html=1;align=center;verticalAlign=middle;resizable=0;points=[];" vertex="1" connectable="0" parent="y1FDP_l7_92bPk08sn10-36">
          <mxGeometry x="0.0383" y="3" relative="1" as="geometry">
            <mxPoint as="offset" />
          </mxGeometry>
        </mxCell>
        <mxCell id="y1FDP_l7_92bPk08sn10-17" value="Authorization Service" style="rounded=1;whiteSpace=wrap;html=1;" vertex="1" parent="1">
          <mxGeometry x="681" y="470" width="120" height="60" as="geometry" />
        </mxCell>
        <mxCell id="y1FDP_l7_92bPk08sn10-18" value="Protected Resources" style="rounded=1;whiteSpace=wrap;html=1;" vertex="1" parent="1">
          <mxGeometry x="681" y="714" width="120" height="60" as="geometry" />
        </mxCell>
        <mxCell id="y1FDP_l7_92bPk08sn10-19" style="edgeStyle=orthogonalEdgeStyle;rounded=0;orthogonalLoop=1;jettySize=auto;html=1;entryX=0.5;entryY=1;entryDx=0;entryDy=0;entryPerimeter=0;" edge="1" parent="1" source="y1FDP_l7_92bPk08sn10-73" target="y1FDP_l7_92bPk08sn10-25">
          <mxGeometry relative="1" as="geometry">
            <mxPoint x="305.5000000000002" y="420" as="targetPoint" />
          </mxGeometry>
        </mxCell>
        <mxCell id="y1FDP_l7_92bPk08sn10-24" value="Credentials Database" style="strokeWidth=2;html=1;shape=mxgraph.flowchart.database;whiteSpace=wrap;" vertex="1" parent="1">
          <mxGeometry x="858.5" y="343" width="60" height="82" as="geometry" />
        </mxCell>
        <mxCell id="y1FDP_l7_92bPk08sn10-27" style="edgeStyle=orthogonalEdgeStyle;rounded=0;orthogonalLoop=1;jettySize=auto;html=1;exitX=0.75;exitY=0;exitDx=0;exitDy=0;exitPerimeter=0;entryX=0;entryY=0.79;entryDx=0;entryDy=0;entryPerimeter=0;" edge="1" parent="1" source="y1FDP_l7_92bPk08sn10-25" target="y1FDP_l7_92bPk08sn10-26">
          <mxGeometry relative="1" as="geometry" />
        </mxCell>
        <mxCell id="y1FDP_l7_92bPk08sn10-25" value="API Gateway&lt;br&gt;(Router/Rate Limiter/&lt;div&gt;Accept or Deny requests)&lt;/div&gt;" style="sketch=0;points=[[0,0,0],[0.25,0,0],[0.5,0,0],[0.75,0,0],[1,0,0],[0,1,0],[0.25,1,0],[0.5,1,0],[0.75,1,0],[1,1,0],[0,0.25,0],[0,0.5,0],[0,0.75,0],[1,0.25,0],[1,0.5,0],[1,0.75,0]];outlineConnect=0;fontColor=#232F3E;fillColor=#8C4FFF;strokeColor=#ffffff;dashed=0;verticalLabelPosition=bottom;verticalAlign=top;align=center;html=1;fontSize=12;fontStyle=0;aspect=fixed;shape=mxgraph.aws4.resourceIcon;resIcon=mxgraph.aws4.api_gateway;" vertex="1" parent="1">
          <mxGeometry x="271" y="345" width="78" height="78" as="geometry" />
        </mxCell>
        <mxCell id="y1FDP_l7_92bPk08sn10-26" value="Rate Limiter Cache" style="outlineConnect=0;dashed=0;verticalLabelPosition=bottom;verticalAlign=top;align=center;html=1;shape=mxgraph.aws3.elasticache;fillColor=#2E73B8;gradientColor=none;" vertex="1" parent="1">
          <mxGeometry x="371" y="207" width="67.5" height="81" as="geometry" />
        </mxCell>
        <mxCell id="y1FDP_l7_92bPk08sn10-29" value="Authenticated Credentials&amp;nbsp;&lt;div&gt;Cache&lt;/div&gt;" style="outlineConnect=0;dashed=0;verticalLabelPosition=bottom;verticalAlign=top;align=center;html=1;shape=mxgraph.aws3.elasticache;fillColor=#2E73B8;gradientColor=none;" vertex="1" parent="1">
          <mxGeometry x="707.25" y="207" width="67.5" height="81" as="geometry" />
        </mxCell>
        <mxCell id="y1FDP_l7_92bPk08sn10-32" style="edgeStyle=orthogonalEdgeStyle;rounded=0;orthogonalLoop=1;jettySize=auto;html=1;entryX=0;entryY=0.79;entryDx=0;entryDy=0;entryPerimeter=0;exitX=1;exitY=0.25;exitDx=0;exitDy=0;exitPerimeter=0;" edge="1" parent="1" source="y1FDP_l7_92bPk08sn10-25" target="y1FDP_l7_92bPk08sn10-29">
          <mxGeometry relative="1" as="geometry">
            <Array as="points">
              <mxPoint x="500" y="365" />
              <mxPoint x="500" y="271" />
            </Array>
          </mxGeometry>
        </mxCell>
        <mxCell id="y1FDP_l7_92bPk08sn10-72" value="Store/Lookup&lt;br&gt;Authenticated Credentials" style="edgeLabel;html=1;align=center;verticalAlign=middle;resizable=0;points=[];" vertex="1" connectable="0" parent="y1FDP_l7_92bPk08sn10-32">
          <mxGeometry x="0.3367" y="-2" relative="1" as="geometry">
            <mxPoint x="46" y="-23" as="offset" />
          </mxGeometry>
        </mxCell>
        <mxCell id="y1FDP_l7_92bPk08sn10-37" style="edgeStyle=orthogonalEdgeStyle;rounded=0;orthogonalLoop=1;jettySize=auto;html=1;entryX=0;entryY=0.5;entryDx=0;entryDy=0;entryPerimeter=0;" edge="1" parent="1" source="y1FDP_l7_92bPk08sn10-68" target="y1FDP_l7_92bPk08sn10-14">
          <mxGeometry relative="1" as="geometry" />
        </mxCell>
        <mxCell id="y1FDP_l7_92bPk08sn10-49" value="" style="edgeStyle=orthogonalEdgeStyle;rounded=0;orthogonalLoop=1;jettySize=auto;html=1;entryX=0;entryY=0.5;entryDx=0;entryDy=0;exitX=1;exitY=0.5;exitDx=0;exitDy=0;exitPerimeter=0;" edge="1" parent="1" source="y1FDP_l7_92bPk08sn10-25" target="y1FDP_l7_92bPk08sn10-48">
          <mxGeometry relative="1" as="geometry">
            <mxPoint x="349" y="384" as="sourcePoint" />
            <mxPoint x="681" y="384" as="targetPoint" />
          </mxGeometry>
        </mxCell>
        <mxCell id="y1FDP_l7_92bPk08sn10-50" value="Authenticate an user/service" style="edgeLabel;html=1;align=center;verticalAlign=middle;resizable=0;points=[];" vertex="1" connectable="0" parent="y1FDP_l7_92bPk08sn10-49">
          <mxGeometry x="-0.4352" relative="1" as="geometry">
            <mxPoint x="54" y="16" as="offset" />
          </mxGeometry>
        </mxCell>
        <mxCell id="y1FDP_l7_92bPk08sn10-48" value="" style="outlineConnect=0;dashed=0;verticalLabelPosition=bottom;verticalAlign=top;align=center;html=1;shape=mxgraph.aws3.application_load_balancer;fillColor=#F58534;gradientColor=none;" vertex="1" parent="1">
          <mxGeometry x="551" y="348" width="69" height="72" as="geometry" />
        </mxCell>
        <mxCell id="y1FDP_l7_92bPk08sn10-58" value="" style="edgeStyle=orthogonalEdgeStyle;rounded=0;orthogonalLoop=1;jettySize=auto;html=1;exitX=1;exitY=0.75;exitDx=0;exitDy=0;exitPerimeter=0;entryX=0;entryY=0.5;entryDx=0;entryDy=0;" edge="1" parent="1" source="y1FDP_l7_92bPk08sn10-25" target="y1FDP_l7_92bPk08sn10-57">
          <mxGeometry relative="1" as="geometry">
            <mxPoint x="349" y="404" as="sourcePoint" />
            <mxPoint x="681" y="621" as="targetPoint" />
            <Array as="points">
              <mxPoint x="371" y="404" />
              <mxPoint x="371" y="621" />
            </Array>
          </mxGeometry>
        </mxCell>
        <mxCell id="y1FDP_l7_92bPk08sn10-61" value="Manage Policies" style="edgeLabel;html=1;align=center;verticalAlign=middle;resizable=0;points=[];" vertex="1" connectable="0" parent="y1FDP_l7_92bPk08sn10-58">
          <mxGeometry x="0.555" y="-2" relative="1" as="geometry">
            <mxPoint x="-6" y="7" as="offset" />
          </mxGeometry>
        </mxCell>
        <mxCell id="y1FDP_l7_92bPk08sn10-60" style="edgeStyle=orthogonalEdgeStyle;rounded=0;orthogonalLoop=1;jettySize=auto;html=1;exitX=1;exitY=0.5;exitDx=0;exitDy=0;exitPerimeter=0;entryX=0;entryY=0.5;entryDx=0;entryDy=0;" edge="1" parent="1" source="y1FDP_l7_92bPk08sn10-57" target="y1FDP_l7_92bPk08sn10-15">
          <mxGeometry relative="1" as="geometry" />
        </mxCell>
        <mxCell id="y1FDP_l7_92bPk08sn10-57" value="" style="outlineConnect=0;dashed=0;verticalLabelPosition=bottom;verticalAlign=top;align=center;html=1;shape=mxgraph.aws3.application_load_balancer;fillColor=#F58534;gradientColor=none;" vertex="1" parent="1">
          <mxGeometry x="551" y="585" width="69" height="72" as="geometry" />
        </mxCell>
        <mxCell id="y1FDP_l7_92bPk08sn10-63" value="" style="edgeStyle=orthogonalEdgeStyle;rounded=0;orthogonalLoop=1;jettySize=auto;html=1;exitX=1;exitY=0.75;exitDx=0;exitDy=0;exitPerimeter=0;entryX=0;entryY=0.5;entryDx=0;entryDy=0;" edge="1" parent="1" source="y1FDP_l7_92bPk08sn10-25" target="y1FDP_l7_92bPk08sn10-62">
          <mxGeometry relative="1" as="geometry">
            <mxPoint x="349" y="404" as="sourcePoint" />
            <mxPoint x="681" y="750" as="targetPoint" />
            <Array as="points">
              <mxPoint x="371" y="404" />
              <mxPoint x="371" y="744" />
            </Array>
          </mxGeometry>
        </mxCell>
        <mxCell id="y1FDP_l7_92bPk08sn10-66" value="Access Protected&lt;br&gt;Resources" style="edgeLabel;html=1;align=center;verticalAlign=middle;resizable=0;points=[];" vertex="1" connectable="0" parent="y1FDP_l7_92bPk08sn10-63">
          <mxGeometry x="0.5238" y="-1" relative="1" as="geometry">
            <mxPoint x="39" y="15" as="offset" />
          </mxGeometry>
        </mxCell>
        <mxCell id="y1FDP_l7_92bPk08sn10-65" style="edgeStyle=orthogonalEdgeStyle;rounded=0;orthogonalLoop=1;jettySize=auto;html=1;entryX=0;entryY=0.5;entryDx=0;entryDy=0;" edge="1" parent="1" source="y1FDP_l7_92bPk08sn10-62" target="y1FDP_l7_92bPk08sn10-18">
          <mxGeometry relative="1" as="geometry" />
        </mxCell>
        <mxCell id="y1FDP_l7_92bPk08sn10-62" value="" style="outlineConnect=0;dashed=0;verticalLabelPosition=bottom;verticalAlign=top;align=center;html=1;shape=mxgraph.aws3.application_load_balancer;fillColor=#F58534;gradientColor=none;" vertex="1" parent="1">
          <mxGeometry x="551" y="708" width="69" height="72" as="geometry" />
        </mxCell>
        <mxCell id="y1FDP_l7_92bPk08sn10-67" value="All services are also protected resources" style="shape=note;whiteSpace=wrap;html=1;backgroundOutline=1;darkOpacity=0.05;" vertex="1" parent="1">
          <mxGeometry x="810" y="694" width="130" height="100" as="geometry" />
        </mxCell>
        <mxCell id="y1FDP_l7_92bPk08sn10-69" value="" style="edgeStyle=orthogonalEdgeStyle;rounded=0;orthogonalLoop=1;jettySize=auto;html=1;entryX=0;entryY=0.5;entryDx=0;entryDy=0;entryPerimeter=0;" edge="1" parent="1" source="y1FDP_l7_92bPk08sn10-15" target="y1FDP_l7_92bPk08sn10-68">
          <mxGeometry relative="1" as="geometry">
            <mxPoint x="801" y="621" as="sourcePoint" />
            <mxPoint x="1001" y="621" as="targetPoint" />
          </mxGeometry>
        </mxCell>
        <mxCell id="y1FDP_l7_92bPk08sn10-70" value="Write/Read&lt;br&gt;trhough" style="edgeLabel;html=1;align=center;verticalAlign=middle;resizable=0;points=[];" vertex="1" connectable="0" parent="y1FDP_l7_92bPk08sn10-69">
          <mxGeometry x="-0.2199" y="-2" relative="1" as="geometry">
            <mxPoint as="offset" />
          </mxGeometry>
        </mxCell>
        <mxCell id="y1FDP_l7_92bPk08sn10-68" value="Policy Cache" style="outlineConnect=0;dashed=0;verticalLabelPosition=bottom;verticalAlign=top;align=center;html=1;shape=mxgraph.aws3.elasticache;fillColor=#2E73B8;gradientColor=none;" vertex="1" parent="1">
          <mxGeometry x="910" y="581" width="67.5" height="81" as="geometry" />
        </mxCell>
        <mxCell id="y1FDP_l7_92bPk08sn10-74" value="" style="edgeStyle=orthogonalEdgeStyle;rounded=0;orthogonalLoop=1;jettySize=auto;html=1;entryX=0;entryY=0.5;entryDx=0;entryDy=0;" edge="1" parent="1" source="y1FDP_l7_92bPk08sn10-11" target="y1FDP_l7_92bPk08sn10-73">
          <mxGeometry relative="1" as="geometry">
            <mxPoint x="104" y="639" as="sourcePoint" />
            <mxPoint x="310" y="423" as="targetPoint" />
          </mxGeometry>
        </mxCell>
        <mxCell id="y1FDP_l7_92bPk08sn10-75" value="Manage&amp;nbsp;&lt;div&gt;Policies and Users&lt;/div&gt;" style="edgeLabel;html=1;align=center;verticalAlign=middle;resizable=0;points=[];" vertex="1" connectable="0" parent="y1FDP_l7_92bPk08sn10-74">
          <mxGeometry x="-0.46" y="1" relative="1" as="geometry">
            <mxPoint x="21" y="21" as="offset" />
          </mxGeometry>
        </mxCell>
        <mxCell id="y1FDP_l7_92bPk08sn10-73" value="Pollicy Management UI Tool" style="rounded=1;whiteSpace=wrap;html=1;" vertex="1" parent="1">
          <mxGeometry x="220" y="570" width="120" height="60" as="geometry" />
        </mxCell>
        <mxCell id="y1FDP_l7_92bPk08sn10-78" value="" style="edgeStyle=orthogonalEdgeStyle;rounded=0;orthogonalLoop=1;jettySize=auto;html=1;entryX=0;entryY=0.5;entryDx=0;entryDy=0;" edge="1" parent="1" source="y1FDP_l7_92bPk08sn10-12" target="y1FDP_l7_92bPk08sn10-77">
          <mxGeometry relative="1" as="geometry">
            <mxPoint x="94" y="239" as="sourcePoint" />
            <mxPoint x="310" y="345" as="targetPoint" />
          </mxGeometry>
        </mxCell>
        <mxCell id="y1FDP_l7_92bPk08sn10-79" value="Access Protected&lt;br&gt;Resources" style="edgeLabel;html=1;align=center;verticalAlign=middle;resizable=0;points=[];" vertex="1" connectable="0" parent="y1FDP_l7_92bPk08sn10-78">
          <mxGeometry x="-0.2357" relative="1" as="geometry">
            <mxPoint x="11" y="21" as="offset" />
          </mxGeometry>
        </mxCell>
        <mxCell id="y1FDP_l7_92bPk08sn10-77" value="Browser/Mobile App" style="rounded=1;whiteSpace=wrap;html=1;" vertex="1" parent="1">
          <mxGeometry x="220" y="170" width="120" height="60" as="geometry" />
        </mxCell>
      </root>
    </mxGraphModel>
  </diagram>
</mxfile>
